<svg xmlns="http://www.w3.org/2000/svg" xmlns:xlink="http://www.w3.org/1999/xlink"><defs><style>
    .sprite-symbol-usage {display: none;}
    .sprite-symbol-usage:target {display: inline;}
  </style><symbol viewBox="0 0 24 24" id="3d-square"><path d="M15 22.75H9c-5.43 0-7.75-2.32-7.75-7.75V9c0-5.43 2.32-7.75 7.75-7.75h6c5.43 0 7.75 2.32 7.75 7.75v6c0 5.43-2.32 7.75-7.75 7.75Zm-6-20C4.39 2.75 2.75 4.39 2.75 9v6c0 4.61 1.64 6.25 6.25 6.25h6c4.61 0 6.25-1.64 6.25-6.25V9c0-4.61-1.64-6.25-6.25-6.25H9Zm3 10.33c-.13 0-.26-.03-.38-.1l-5.3-3.06a.742.742 0 0 1-.27-1.02c.21-.36.67-.48 1.02-.27l4.92 2.85 4.89-2.83c.36-.21.82-.08 1.02.27.2.35.08.82-.27 1.02l-5.26 3.04c-.11.06-.24.1-.37.1Zm0 5.44c-.41 0-.75-.34-.75-.75v-5.44c0-.41.34-.75.75-.75s.75.34.75.75v5.44c0 .41-.34.75-.75.75Zm0 .23c-.58 0-1.15-.13-1.61-.38l-3.2-1.78c-.96-.53-1.7-1.8-1.7-2.9V10.3c0-1.09.75-2.36 1.7-2.9l3.2-1.78c.92-.51 2.3-.51 3.22 0l3.2 1.78c.96.53 1.7 1.8 1.7 2.9v3.39c0 1.09-.75 2.36-1.7 2.9l-3.2 1.78c-.46.26-1.03.38-1.61.38Zm0-12c-.33 0-.65.06-.88.19l-3.2 1.78c-.49.27-.93 1.03-.93 1.58v3.39c0 .56.44 1.31.93 1.58l3.2 1.78c.46.26 1.3.26 1.76 0l3.2-1.78c.49-.27.93-1.03.93-1.58V10.3c0-.56-.44-1.31-.93-1.58l-3.2-1.78c-.23-.13-.55-.19-.88-.19Z" /></symbol><symbol fill="none" viewBox="0 0 6 10" id="arrow-right"><path d="m1 9 4-4-4-4" stroke="#9197B3" stroke-width="2" stroke-linecap="round" stroke-linejoin="round" /></symbol><symbol viewBox="0 0 24 24" id="discount-shape"><path d="M12 22.75c-.63 0-1.22-.24-1.66-.69l-1.52-1.52c-.12-.12-.44-.25-.6-.25H6.06c-1.3 0-2.35-1.05-2.35-2.35v-2.16c0-.16-.13-.48-.25-.6l-1.52-1.52c-.44-.44-.69-1.03-.69-1.66 0-.63.24-1.22.69-1.66l1.52-1.52c.12-.12.25-.44.25-.6V6.06c0-1.3 1.05-2.35 2.35-2.35h2.16c.16 0 .48-.13.6-.25l1.52-1.52c.88-.88 2.44-.88 3.32 0l1.52 1.52c.12.12.44.25.6.25h2.16c1.3 0 2.35 1.05 2.35 2.35v2.16c0 .16.13.48.25.6l1.52 1.52c.44.44.69 1.03.69 1.66 0 .63-.24 1.22-.69 1.66l-1.52 1.52c-.12.12-.25.44-.25.6v2.16c0 1.3-1.05 2.35-2.35 2.35h-2.16c-.16 0-.48.13-.6.25l-1.52 1.52c-.44.45-1.03.69-1.66.69Zm-7.48-8.63c.4.4.69 1.1.69 1.66v2.16c0 .47.38.85.85.85h2.16c.56 0 1.26.29 1.66.69L11.4 21c.32.32.88.32 1.2 0l1.52-1.52c.4-.4 1.1-.69 1.66-.69h2.16c.47 0 .85-.38.85-.85v-2.16c0-.56.29-1.26.69-1.66L21 12.6a.84.84 0 0 0 .25-.6c0-.23-.09-.44-.25-.6l-1.52-1.52c-.4-.4-.69-1.1-.69-1.66V6.06a.85.85 0 0 0-.85-.85h-2.16c-.56 0-1.26-.29-1.66-.69L12.6 3a.87.87 0 0 0-1.2 0L9.88 4.52c-.4.4-1.1.69-1.66.69H6.06a.85.85 0 0 0-.85.85v2.16c0 .56-.29 1.26-.69 1.66L3 11.4c-.16.16-.25.37-.25.6 0 .23.09.44.25.6l1.52 1.52ZM15 16c-.56 0-1.01-.45-1.01-1s.45-1 1-1 1 .45 1 1-.44 1-.99 1Zm-5.99-6C8.45 10 8 9.55 8 9s.45-1 1-1 1 .45 1 1-.44 1-.99 1ZM9 15.75c-.19 0-.38-.07-.53-.22a.754.754 0 0 1 0-1.06l6-6c.29-.29.77-.29 1.06 0 .29.29.29.77 0 1.06l-6 6c-.15.15-.34.22-.53.22Z" /></symbol><symbol viewBox="0 0 24 24" id="key-square"><path style="stroke-linecap:round;stroke-linejoin:round;-inkscape-stroke:none" d="M9 1.25c-2.6 0-4.585.522-5.906 1.844C1.772 4.415 1.25 6.4 1.25 9v6c0 2.6.522 4.585 1.844 5.906C4.415 22.228 6.4 22.75 9 22.75h6c2.6 0 4.585-.522 5.906-1.844C22.228 19.585 22.75 17.6 22.75 15V9c0-2.6-.522-4.585-1.844-5.906C19.585 1.772 17.6 1.25 15 1.25Zm0 1.5h6c2.4 0 3.915.478 4.844 1.406C20.772 5.085 21.25 6.6 21.25 9v6c0 2.4-.478 3.915-1.406 4.844-.929.928-2.444 1.406-4.844 1.406H9c-2.4 0-3.915-.478-4.844-1.406C3.228 18.915 2.75 17.4 2.75 15V9c0-2.4.478-3.915 1.406-4.844C5.085 3.228 6.6 2.75 9 2.75Zm4.33 3.02A4.89 4.89 0 0 0 9.86 7.2c-1.19 1.19-1.525 2.84-1.235 4.384L6.25 13.959a.75.75 0 0 0-.014.016c-.39.412-.56.842-.466 1.449l-.004-.016.16 1.201a.75.75 0 0 0 .004.016c.117.763.657 1.348 1.466 1.45l1.184.157c.583.087 1.05-.048 1.475-.496l2.37-2.361c1.547.296 3.197-.046 4.386-1.234a.75.75 0 0 0 .002-.002c1.905-1.917 1.906-5.043-.004-6.942A4.92 4.92 0 0 0 13.33 5.77Zm.002 1.492c.873 0 1.749.332 2.42 1 1.329 1.32 1.33 3.475-.002 4.818h-.002v.002a3.394 3.394 0 0 1-3.424.842.75.75 0 0 0-.754.185l-1.113 1.11-.324-.326a.75.75 0 0 0-1.06-.006.75.75 0 0 0-.007 1.06l.327.33-.413.412a.75.75 0 0 0-.015.016c.064-.068-.208.037-.164.043a.75.75 0 0 0-.012-.002l-1.2-.16a.75.75 0 0 0-.005 0c.01.001-.17-.173-.172-.19l-.158-1.185a.75.75 0 0 0-.002-.016c.013.087.103-.221.072-.19l2.567-2.566a.75.75 0 0 0 .185-.75 3.415 3.415 0 0 1 .844-3.43 3.399 3.399 0 0 1 2.412-.997Zm.063 2.437a1 1 0 0 0-1 1 1 1 0 0 0 1 1h.01a1 1 0 0 0 1-1 1 1 0 0 0-1-1z" /></symbol><symbol fill="none" viewBox="0 0 24 24" id="key-square2"><path d="M9 22h6c5 0 7-2 7-7V9c0-5-2-7-7-7H9C4 2 2 4 2 9v6c0 5 2 7 7 7Z" stroke="#9197B3" stroke-width="1.5" stroke-linecap="round" stroke-linejoin="round" /><path d="M16.28 13.61a4.147 4.147 0 0 1-4.18 1.03l-2.59 2.58c-.18.19-.55.31-.82.27l-1.2-.16c-.4-.05-.76-.43-.82-.82l-.16-1.2c-.04-.26.09-.63.27-.82l2.58-2.58c-.44-1.43-.1-3.05 1.03-4.18 1.62-1.62 4.26-1.62 5.89 0 1.62 1.61 1.62 4.25 0 5.88ZM10.45 16.28l-.85-.86" stroke="#9197B3" stroke-width="1.5" stroke-miterlimit="10" stroke-linecap="round" stroke-linejoin="round" /><path d="M13.395 10.7h.008" stroke="#9197B3" stroke-width="2" stroke-linecap="round" stroke-linejoin="round" /></symbol><symbol fill="none" viewBox="0 0 37 37" id="logo"><path d="M18.5 34.888c-1.033 0-2.081-.232-2.898-.71l-8.48-4.887c-3.452-2.328-3.668-2.682-3.668-6.336v-8.91c0-3.655.2-4.01 3.592-6.306l8.54-4.933c1.62-.94 4.163-.94 5.782 0l8.51 4.902c3.453 2.328 3.669 2.682 3.669 6.336v8.896c0 3.653-.2 4.008-3.592 6.305l-8.541 4.933c-.833.478-1.88.71-2.914.71Zm0-30.464c-.647 0-1.28.124-1.726.386l-8.48 4.902c-2.512 1.696-2.512 1.696-2.512 4.332v8.896c0 2.636 0 2.636 2.574 4.378l8.418 4.856c.91.524 2.559.524 3.468 0l8.48-4.902c2.497-1.696 2.497-1.696 2.497-4.332v-8.896c0-2.636 0-2.636-2.575-4.378L20.227 4.81c-.447-.262-1.08-.386-1.727-.386Z" fill="#000" /><path d="M18.5 24.281a5.783 5.783 0 0 1-5.781-5.781 5.783 5.783 0 0 1 5.781-5.781 5.783 5.783 0 0 1 5.781 5.781 5.783 5.783 0 0 1-5.781 5.781Zm0-9.25a3.474 3.474 0 0 0-3.469 3.469 3.474 3.474 0 0 0 3.469 3.469 3.474 3.474 0 0 0 3.469-3.469 3.474 3.474 0 0 0-3.469-3.469Z" fill="#000" /></symbol><symbol viewBox="0 0 24 24" id="message-question"><path d="M8 22.32c-.28 0-.57-.07-.83-.21-.57-.3-.92-.9-.92-1.54v-1.42c-3.02-.31-5-2.53-5-5.71v-6C1.25 4 3.56 1.69 7 1.69h10c3.44 0 5.75 2.31 5.75 5.75v6c0 3.44-2.31 5.75-5.75 5.75h-3.77l-4.26 2.84c-.29.19-.63.29-.97.29ZM7 3.18c-2.58 0-4.25 1.67-4.25 4.25v6c0 2.58 1.67 4.25 4.25 4.25.41 0 .75.34.75.75v2.13c0 .13.08.19.13.22s.15.06.26-.01l4.45-2.96c.12-.08.27-.13.42-.13h4c2.58 0 4.25-1.67 4.25-4.25v-6c0-2.58-1.67-4.25-4.25-4.25H7Zm5 8.93c-.41 0-.75-.34-.75-.75v-.21c0-1.16.85-1.73 1.17-1.95.37-.25.49-.42.49-.68 0-.5-.41-.91-.91-.91s-.91.41-.91.91c0 .41-.34.75-.75.75s-.75-.34-.75-.75c0-1.33 1.08-2.41 2.41-2.41s2.41 1.08 2.41 2.41c0 1.14-.84 1.71-1.15 1.92-.39.26-.51.43-.51.71v.21c0 .42-.34.75-.75.75Zm0 2.49a.749.749 0 1 1-.002-1.498A.749.749 0 0 1 12 14.6Z" /></symbol><symbol fill="none" viewBox="0 0 24 24" id="search"><path d="M11 19a8 8 0 1 0 0-16 8 8 0 0 0 0 16ZM21 21l-4.35-4.35" stroke="#7E7E7E" stroke-width="2" stroke-linecap="round" stroke-linejoin="round" /></symbol><symbol fill="none" viewBox="0 0 24 24" id="user-square"><path d="M15 22.75H9c-1.32 0-2.42-.13-3.35-.41a.767.767 0 0 1-.54-.78c.25-2.99 3.28-5.34 6.89-5.34s6.63 2.34 6.89 5.34c.03.36-.19.68-.54.78-.93.28-2.03.41-3.35.41Zm-8.28-1.69c.66.13 1.41.19 2.28.19h6c.87 0 1.62-.06 2.28-.19-.53-1.92-2.72-3.34-5.28-3.34s-4.75 1.42-5.28 3.34Z" fill="#fff" /><path d="M15 2H9C4 2 2 4 2 9v6c0 3.78 1.14 5.85 3.86 6.62.22-2.6 2.89-4.65 6.14-4.65 3.25 0 5.92 2.05 6.14 4.65C20.86 20.85 22 18.78 22 15V9c0-5-2-7-7-7Zm-3 12.17c-1.98 0-3.58-1.61-3.58-3.59C8.42 8.6 10.02 7 12 7s3.58 1.6 3.58 3.58-1.6 3.59-3.58 3.59Z" stroke="#fff" stroke-width="1.5" stroke-linecap="round" stroke-linejoin="round" /><path d="M12 14.92a4.34 4.34 0 0 1-4.33-4.34c0-2.39 1.94-4.33 4.33-4.33s4.33 1.94 4.33 4.33A4.34 4.34 0 0 1 12 14.92Zm0-7.17a2.836 2.836 0 0 0 0 5.67 2.836 2.836 0 0 0 0-5.67Z" fill="#fff" /></symbol><symbol viewBox="0 0 24 24" id="wallet-money"><path style="stroke-linecap:round;stroke-linejoin:round;-inkscape-stroke:none" d="M7 2.75c-.309 0-.61.022-.904.066h-.002C3.22 3.178 1.25 5.48 1.25 8.5v2a.75.75 0 0 0 .75.75.75.75 0 0 0 .75-.75v-2c0-2.419 1.308-3.916 3.533-4.195a.75.75 0 0 0 .022-.004c.22-.034.45-.051.695-.051h9c.24 0 .45.01.627.04a.75.75 0 0 0 .037.005c2.254.262 3.586 1.77 3.586 4.205v.7h-1.33a2.778 2.778 0 0 0-1.774.64 2.74 2.74 0 0 0-.199.185 2.762 2.762 0 0 0-.812 2.22c.06.703.384 1.308.861 1.753.032.03.063.06.096.088.53.451 1.225.715 1.947.715h1.211v.699c0 1.333-.433 2.37-1.156 3.094-.724.723-1.76 1.156-3.094 1.156h-2.5a.75.75 0 0 0-.75.75.75.75 0 0 0 .75.75H16c1.667 0 3.13-.567 4.156-1.594 1.027-1.026 1.594-2.49 1.594-4.156v-.887a1.78 1.78 0 0 0 1-1.584v-2.058a1.78 1.78 0 0 0-1-1.584V8.5c0-3.04-2.003-5.347-4.9-5.691A5.331 5.331 0 0 0 16 2.75Zm.182 7.5c-.365 0-.721.042-1.063.12l-.015.003c-.103.024-.204.05-.303.08a4.384 4.384 0 0 0-1.664.902c-.78.683-1.297 1.662-1.297 2.754 0 .092.004.184.012.274V18.89c0 2.188 2.007 3.859 4.33 3.859 2.322 0 4.32-1.674 4.32-3.86v-2.029a.75.75 0 0 0 0-.002v-2.75c0-1.092-.514-2.078-1.297-2.763a.75.75 0 0 0-.004-.004c-.79-.68-1.853-1.092-3.02-1.092Zm11.738.45h2.053c.173.005.277.12.277.27v2.06c0 .15-.104.265-.277.27h-1.934c-.714 0-1.357-.526-1.412-1.183a.75.75 0 0 0 0-.002.75.75 0 0 0 0-.002.75.75 0 0 0 0-.002.75.75 0 0 0 0-.002 1.255 1.255 0 0 1 .377-1.023.75.75 0 0 0 .014-.014c.23-.237.538-.373.902-.373zM7.16 11.76c.813 0 1.53.288 2.041.728a.75.75 0 0 0 .008.008c.285.238.5.519.633.832l.002.006c.028.068.053.138.074.209l.004.016a1.956 1.956 0 0 1 .057.261 1.858 1.858 0 0 1-.252 1.262c-.427.7-1.376 1.219-2.557 1.219-1.177 0-2.13-.53-2.557-1.22a1.877 1.877 0 0 1-.261-.765v-.207c0-.694.368-1.342.972-1.783.006-.004.012-.01.018-.013.063-.046.13-.089.199-.13l.014-.007a3.236 3.236 0 0 1 1.605-.416zm2.838 5.181c-.002.05-.002.1-.008.149a1.85 1.85 0 0 1-.219.678l-.019.035-.022.033c-.022.036-.045.07-.07.105-.019.027-.038.055-.058.08a2.098 2.098 0 0 1-.155.174l-.037.04a2.537 2.537 0 0 1-.213.183c-.038.03-.08.058-.12.086l-.106.068-.04.026-.03.017a2.902 2.902 0 0 1-.18.096l-.016.008-.023.01c-.05.023-.1.047-.153.068a3.19 3.19 0 0 1-.166.062l-.054.018a3.445 3.445 0 0 1-1.127.174c-.104 0-.207-.004-.307-.012h-.002c-.1-.008-.197-.02-.293-.035h-.004c-.577-.093-1.08-.318-1.453-.617-.374-.3-.62-.661-.72-1.084a1.901 1.901 0 0 1-.046-.356c.77.55 1.756.854 2.813.854 1.06 0 2.055-.303 2.828-.86zm-5.06 3.098a4.96 4.96 0 0 0 2.083.508c.054.001.107.004.16.004.054 0 .108-.003.16-.004a4.956 4.956 0 0 0 2.08-.506c-.466.679-1.188 1.209-2.24 1.209-1.05 0-1.773-.533-2.244-1.21Z" /></symbol></defs><use id="3d-square-usage" xlink:href="#3d-square" class="sprite-symbol-usage" /><use id="arrow-right-usage" xlink:href="#arrow-right" class="sprite-symbol-usage" /><use id="discount-shape-usage" xlink:href="#discount-shape" class="sprite-symbol-usage" /><use id="key-square-usage" xlink:href="#key-square" class="sprite-symbol-usage" /><use id="key-square2-usage" xlink:href="#key-square2" class="sprite-symbol-usage" /><use id="logo-usage" xlink:href="#logo" class="sprite-symbol-usage" /><use id="message-question-usage" xlink:href="#message-question" class="sprite-symbol-usage" /><use id="search-usage" xlink:href="#search" class="sprite-symbol-usage" /><use id="user-square-usage" xlink:href="#user-square" class="sprite-symbol-usage" /><use id="wallet-money-usage" xlink:href="#wallet-money" class="sprite-symbol-usage" /></svg>