<?xml version="1.0" encoding="UTF-8" standalone="no"?>
<svg
   width="24"
   height="24"
   viewBox="0 0 24 24"
   version="1.1"
   id="svg305"
   sodipodi:docname="key-square1.svg"
   inkscape:version="1.2.1 (9c6d41e410, 2022-07-14)"
   xmlns:inkscape="http://www.inkscape.org/namespaces/inkscape"
   xmlns:sodipodi="http://sodipodi.sourceforge.net/DTD/sodipodi-0.dtd"
   xmlns="http://www.w3.org/2000/svg"
   xmlns:svg="http://www.w3.org/2000/svg">
  <defs
     id="defs309" />
  <sodipodi:namedview
     id="namedview307"
     pagecolor="#ffffff"
     bordercolor="#000000"
     borderopacity="0.25"
     inkscape:showpageshadow="2"
     inkscape:pageopacity="0.0"
     inkscape:pagecheckerboard="0"
     inkscape:deskcolor="#d1d1d1"
     showgrid="false"
     inkscape:zoom="36"
     inkscape:cx="12"
     inkscape:cy="12.013889"
     inkscape:window-width="1920"
     inkscape:window-height="1051"
     inkscape:window-x="-9"
     inkscape:window-y="-9"
     inkscape:window-maximized="1"
     inkscape:current-layer="svg305" />
  <path
     id="path297"
     style="stroke-linecap:round;stroke-linejoin:round;-inkscape-stroke:none"
     d="M 9,1.25 C 6.4000078,1.25 4.4151646,1.7723354 3.09375,3.09375 1.7723354,4.4151646 1.25,6.4000078 1.25,9 v 6 c 0,2.599991 0.5223354,4.584835 1.84375,5.90625 C 4.4151646,22.227665 6.4000078,22.75 9,22.75 h 6 c 2.599991,0 4.584835,-0.522335 5.90625,-1.84375 C 22.227665,19.584835 22.75,17.599991 22.75,15 V 9 C 22.75,6.4000078 22.227665,4.4151646 20.90625,3.09375 19.584835,1.7723354 17.599991,1.25 15,1.25 Z m 0,1.5 h 6 c 2.399994,0 3.915171,0.4776713 4.84375,1.40625 C 20.772329,5.0848287 21.25,6.6000072 21.25,9 v 6 c 0,2.399994 -0.477671,3.915171 -1.40625,4.84375 C 18.915171,20.772329 17.399994,21.25 15,21.25 H 9 C 6.6000072,21.25 5.0848287,20.772329 4.15625,19.84375 3.2276713,18.915171 2.75,17.399994 2.75,15 V 9 C 2.75,6.6000072 3.2276713,5.0848287 4.15625,4.15625 5.0848287,3.2276713 6.6000072,2.75 9,2.75 Z m 4.330078,3.0195312 C 12.070983,5.7696067 10.813412,6.2451813 9.859375,7.1992188 8.6690671,8.3895373 8.3347128,10.040356 8.625,11.583984 l -2.375,2.375 a 0.750075,0.750075 0 0 0 -0.013672,0.01563 c -0.3903382,0.412025 -0.5601924,0.842149 -0.4667969,1.449219 l -0.00391,-0.01563 0.1601562,1.201172 a 0.750075,0.750075 0 0 0 0.00391,0.01563 c 0.117424,0.763255 0.6576755,1.348078 1.4667969,1.449219 l 1.1835937,0.158203 c 0.5833567,0.08642 1.050134,-0.04804 1.4746099,-0.496094 L 12.425781,15.375 c 1.546482,0.296387 3.196638,-0.04625 4.384766,-1.234375 a 0.750075,0.750075 0 0 0 0.002,-0.002 C 18.717871,12.221539 18.719347,9.0962243 16.808594,7.1972656 15.850003,6.2445558 14.589173,5.769456 13.330078,5.7695312 Z m 0.002,1.4921876 c 0.873399,7.53e-5 1.748518,0.3327145 2.419922,1 1.328576,1.3203743 1.330673,3.4754092 -0.002,4.8183592 h -0.002 v 0.002 c -0.931214,0.929726 -2.255591,1.209425 -3.423828,0.841797 a 0.750075,0.750075 0 0 0 -0.753907,0.185547 l -1.113281,1.109375 -0.324219,-0.326172 a 0.75,0.75 0 0 0 -1.0605464,-0.0059 0.75,0.75 0 0 0 -0.00586,1.060547 l 0.3261719,0.330078 -0.4121093,0.412109 a 0.750075,0.750075 0 0 0 -0.015625,0.01563 c 0.064475,-0.06806 -0.2074208,0.03655 -0.1640626,0.04297 a 0.750075,0.750075 0 0 0 -0.011719,-0.002 L 7.5898438,16.585938 a 0.750075,0.750075 0 0 0 -0.00586,0 c 0.00912,0.0011 -0.1692993,-0.172712 -0.171875,-0.189454 L 7.2539062,15.210938 a 0.750075,0.750075 0 0 0 -0.00195,-0.01563 c 0.013396,0.08707 0.1026045,-0.221478 0.072266,-0.189453 L 9.890625,12.439453 a 0.750075,0.750075 0 0 0 0.185547,-0.75 C 9.7149324,10.515426 9.9901746,9.1895214 10.919922,8.2597656 11.585879,7.593808 12.458632,7.2616434 13.332031,7.2617188 Z m 0.0625,2.4375 a 1,1 0 0 0 -1,1.0000002 1,1 0 0 0 1,1 h 0.0098 a 1,1 0 0 0 1,-1 1,1 0 0 0 -1,-1.0000002 z" />
</svg>
