<?xml version="1.0" encoding="UTF-8" standalone="no"?>
<svg
   width="24"
   height="24"
   viewBox="0 0 24 24"
   version="1.1"
   id="svg28"
   sodipodi:docname="wallet-money2.svg"
   inkscape:version="1.2.1 (9c6d41e410, 2022-07-14)"
   inkscape:export-filename="wallet-money3.svg"
   inkscape:export-xdpi="96"
   inkscape:export-ydpi="96"
   xmlns:inkscape="http://www.inkscape.org/namespaces/inkscape"
   xmlns:sodipodi="http://sodipodi.sourceforge.net/DTD/sodipodi-0.dtd"
   xmlns="http://www.w3.org/2000/svg"
   xmlns:svg="http://www.w3.org/2000/svg">
  <defs
     id="defs32" />
  <sodipodi:namedview
     id="namedview30"
     pagecolor="#ffffff"
     bordercolor="#000000"
     borderopacity="0.25"
     inkscape:showpageshadow="2"
     inkscape:pageopacity="0.0"
     inkscape:pagecheckerboard="0"
     inkscape:deskcolor="#d1d1d1"
     showgrid="false"
     inkscape:zoom="36"
     inkscape:cx="12"
     inkscape:cy="14.986111"
     inkscape:window-width="1920"
     inkscape:window-height="1051"
     inkscape:window-x="-9"
     inkscape:window-y="-9"
     inkscape:window-maximized="1"
     inkscape:current-layer="svg28" />
  <path
     id="path262"
     style="stroke-linecap:round;stroke-linejoin:round;-inkscape-stroke:none"
     d="m 7,2.75 c -0.3090259,0 -0.6103147,0.022209 -0.9042969,0.066406 H 6.09375 C 3.2203128,3.1779225 1.25,5.4792211 1.25,8.5 v 2 A 0.75,0.75 0 0 0 2,11.25 0.75,0.75 0 0 0 2.75,10.5 v -2 c 0,-2.4185222 1.3077099,-3.9160349 3.5332031,-4.1953125 a 0.750075,0.750075 0 0 0 0.021484,-0.00391 C 6.5246954,4.2669378 6.7557149,4.25 7,4.25 h 9 c 0.240788,0 0.450289,0.00962 0.626953,0.039063 a 0.750075,0.750075 0 0 0 0.03711,0.00586 C 18.918163,4.5570255 20.25,6.0647518 20.25,8.5 v 0.6992188 h -1.330078 c -0.471177,0 -0.926326,0.1198712 -1.324219,0.3359374 -0.158854,0.086392 -0.310379,0.1886493 -0.449219,0.3046876 -0.06923,0.057926 -0.135858,0.1207561 -0.199218,0.1855472 -0.56712,0.55934 -0.891211,1.36505 -0.8125,2.21875 0.05941,0.703998 0.38461,1.308972 0.861328,1.753906 0.03179,0.02967 0.06259,0.05967 0.0957,0.08789 0.529627,0.451425 1.224856,0.714843 1.947265,0.714843 H 20.25 V 15.5 c 0,1.33333 -0.432776,2.370276 -1.15625,3.09375 C 18.370276,19.317224 17.33333,19.75 16,19.75 h -2.5 a 0.75,0.75 0 0 0 -0.75,0.75 0.75,0.75 0 0 0 0.75,0.75 H 16 c 1.666661,0 3.12973,-0.56723 4.15625,-1.59375 C 21.18277,18.62973 21.75,17.166661 21.75,15.5 v -0.886719 c 0.587863,-0.291131 1,-0.893221 1,-1.583984 v -2.058594 c 0,-0.690763 -0.412134,-1.2928341 -1,-1.5839842 V 8.5 C 21.75,5.4604572 19.747474,3.1526305 16.849609,2.8085938 16.555084,2.7615143 16.271708,2.75 16,2.75 Z m 0.1816406,7.5 c -0.3642192,0 -0.7208481,0.04183 -1.0625,0.119141 -0.00523,0.0011 -0.0104,0.0028 -0.015625,0.0039 -0.1024655,0.02355 -0.2030674,0.05008 -0.3027344,0.08008 -0.6257062,0.182879 -1.1934534,0.489991 -1.6640624,0.902344 -0.779863,0.682379 -1.2968751,1.661363 -1.296875,2.753906 0,0.09209 0.00436,0.183194 0.011719,0.273437 v 2.476563 0.002 2.029297 c 0,2.188023 2.0072932,3.859375 4.3300781,3.859375 2.322785,0 4.3203124,-1.674259 4.3203124,-3.859375 v -2.029297 a 0.750075,0.750075 0 0 0 0,-0.002 v -2.75 c 0,-1.092555 -0.513701,-2.078384 -1.296875,-2.763672 a 0.750075,0.750075 0 0 0 -0.0039,-0.0039 C 9.4117516,10.661681 8.3484049,10.25 7.1816406,10.25 Z m 11.7382814,0.449219 h 2.052734 c 0.17303,0.0062 0.277344,0.121484 0.277344,0.271484 v 2.058594 c 0,0.15 -0.104269,0.265303 -0.277344,0.271484 h -1.933594 c -0.714256,0 -1.357395,-0.527033 -1.412109,-1.183593 a 0.750075,0.750075 0 0 0 0,-0.002 0.750075,0.750075 0 0 0 0,-0.002 0.750075,0.750075 0 0 0 0,-0.002 0.750075,0.750075 0 0 0 0,-0.002 c -0.03791,-0.39809 0.112118,-0.764908 0.376953,-1.023437 a 0.750075,0.750075 0 0 0 0.01367,-0.01367 c 0.230621,-0.236854 0.538764,-0.373047 0.902344,-0.373047 z M 7.1601562,11.759766 c 0.81323,0 1.5304337,0.28863 2.0410157,0.728515 a 0.750075,0.750075 0 0 0 0.00781,0.0078 c 0.2849718,0.237468 0.4995294,0.518848 0.6328125,0.832031 7.947e-4,0.0019 0.00116,0.004 0.00195,0.0059 0.028598,0.06778 0.053344,0.138461 0.074219,0.208985 0.00151,0.0052 0.00244,0.01046 0.00391,0.01563 0.014607,0.05088 0.026609,0.102133 0.037109,0.154297 0.00714,0.03556 0.01431,0.07137 0.019531,0.107421 C 9.9921651,13.91494 10,14.011337 10,14.109375 c 0,0.359331 -0.098366,0.680283 -0.2734375,0.972656 -0.4266418,0.699212 -1.3757313,1.21875 -2.5566406,1.21875 -1.1766874,0 -2.1297206,-0.529325 -2.5566407,-1.220703 -0.1400709,-0.234397 -0.231133,-0.487501 -0.2617187,-0.763672 v -0.207031 c 0,-0.694495 0.3679526,-1.342565 0.9726563,-1.783203 0.00599,-0.0043 0.011543,-0.0094 0.017578,-0.01367 0.063551,-0.04551 0.1306946,-0.08813 0.1992187,-0.128906 0.00449,-0.0026 0.00916,-0.0052 0.013672,-0.0078 0.070941,-0.04168 0.1448228,-0.07901 0.2207031,-0.115234 0.4037173,-0.190621 0.8733405,-0.300781 1.3847656,-0.300781 z m 2.8378907,5.18164 c -0.00194,0.04965 -0.00239,0.100356 -0.00781,0.148438 -0.00842,0.07465 -0.022422,0.145875 -0.039063,0.216797 -0.016641,0.07092 -0.037831,0.139776 -0.0625,0.207031 -0.019328,0.05269 -0.042257,0.103822 -0.066406,0.154297 -0.016026,0.03332 -0.032675,0.06722 -0.050781,0.09961 -0.00643,0.0115 -0.012846,0.02378 -0.019531,0.03516 -0.00666,0.01135 -0.014572,0.02197 -0.021484,0.0332 -0.022223,0.03602 -0.045468,0.07063 -0.070313,0.105468 -0.018952,0.02665 -0.038131,0.05413 -0.058594,0.08008 -0.026765,0.03386 -0.054677,0.06692 -0.083984,0.09961 -0.022718,0.02538 -0.046084,0.04956 -0.070312,0.07422 -0.012498,0.01272 -0.024214,0.02653 -0.037109,0.03906 -0.054881,0.05333 -0.1138064,0.10431 -0.1757812,0.154297 -0.012097,0.0098 -0.024738,0.01971 -0.037109,0.0293 -0.038587,0.02988 -0.079898,0.05774 -0.1210937,0.08594 -0.034355,0.02354 -0.069382,0.04606 -0.1054688,0.06836 -0.013281,0.0082 -0.025554,0.01736 -0.039063,0.02539 -0.010323,0.0061 -0.020794,0.01155 -0.03125,0.01758 -0.057967,0.03348 -0.1178233,0.06554 -0.1796875,0.0957 -0.00528,0.0026 -0.01032,0.0053 -0.015625,0.0078 -0.00759,0.0036 -0.015793,0.0062 -0.023437,0.0098 -0.049856,0.02343 -0.1001972,0.0472 -0.1523437,0.06836 -0.054553,0.0221 -0.1090853,0.04302 -0.1660157,0.0625 -0.01811,0.0062 -0.036348,0.01163 -0.054687,0.01758 -0.079104,0.02555 -0.1609722,0.05009 -0.2441407,0.07031 -0.091864,0.02234 -0.1849104,0.04126 -0.28125,0.05664 -0.09634,0.01538 -0.1946129,0.02722 -0.2949219,0.03516 -0.1003088,0.0079 -0.2028687,0.01172 -0.3066406,0.01172 -0.1036132,0 -0.2063441,-0.0037 -0.3066406,-0.01172 h -0.00195 c -0.099618,-0.008 -0.1971463,-0.01977 -0.2929688,-0.03516 -0.00128,-2.05e-4 -0.00263,2.06e-4 -0.00391,0 C 5.9990598,18.910638 5.496078,18.686434 5.1230469,18.386719 4.7491914,18.08634 4.5024934,17.725564 4.4023438,17.302734 4.3754381,17.18914 4.3627363,17.069918 4.3574219,16.947266 c 0.7695051,0.549647 1.7559917,0.853515 2.8125,0.853515 1.0599085,0 2.0549057,-0.303065 2.828125,-0.859375 z M 4.9375,20.039062 c 0.6201528,0.311581 1.3317748,0.485914 2.0839844,0.507813 0.053272,0.0016 0.1064983,0.0039 0.1601562,0.0039 0.053598,0 0.1069429,-0.0024 0.1601563,-0.0039 C 8.0925845,20.525089 8.8029578,20.351579 9.421875,20.041016 8.9546702,20.719942 8.2332588,21.25 7.1816406,21.25 6.1306882,21.25 5.4082816,20.717189 4.9375,20.039062 Z" />
</svg>
